# xmcd
#
# Track frame offsets:
# 182
# 15447
# 32955
# 54050
# 76640
# 93755
# 111492
# 125497
# 142565
# 157230
# 179532
# 199887
#
# Disc length: 2918 seconds
#
# Revision: 5
# Processed by: cddbd v1.5PL3 Copyright (c) Steve Scherf et al.
# Submitted via: Axialis_AX_CDPlayer 2.6
#
DISCID=910b640c
DTITLE=Soundtrack - The Horse Whisperer
DYEAR=1900
DGENRE=
TTITLE0=Dwight Yoakam - Cattle Call
TTITLE1=Allison Moorer - A Soft Place To Fall
TTITLE2=The Flatlanders - South Wind Of Summer
TTITLE3=Lucinda Williams - Still I Long For Your Kiss
TTITLE4=The Mavericks - Dream River
TTITLE5=Emmylou Harris - Slow Surprise
TTITLE6=Don Walser - Big Ball's In Cowtown
TTITLE7=Gillian Welch - Leaving Train
TTITLE8=Don Edwards - Cowboy Love Song
TTITLE9=Steve Earle - Me And The Eagle
TTITLE10=Iris DeMent - Whispering Pines
TTITLE11=George Strait - Red River Valley
EXTD=
EXTT0=
EXTT1=
EXTT2=
EXTT3=
EXTT4=
EXTT5=
EXTT6=
EXTT7=
EXTT8=
EXTT9=
EXTT10=
EXTT11=
PLAYORDER=
